<svg id="Livello_1" data-name="Livello 1" xmlns="http://www.w3.org/2000/svg" viewBox="0 0 157.63 158.39"><defs><style>.cls-1{fill:#fff;stroke:#fff;stroke-miterlimit:10;stroke-width:0.5px;}</style></defs><path class="cls-1" d="M129.56,46.27q-2.26-3.19-1.55-6a6.22,6.22,0,0,1,1.09-2.12,10.72,10.72,0,0,1,2.38-2.2,8.82,8.82,0,0,1,3.12-1.46,5.55,5.55,0,0,1,2.87,0,8.2,8.2,0,0,1,4.16,3.21,11.29,11.29,0,0,1,1,1.58,8.92,8.92,0,0,1,.55,1.26l.13.44-.2.08a10.9,10.9,0,0,0-1.61-3.24,5.12,5.12,0,0,0-3.33-2.19,6,6,0,0,0-3.5.52,13.49,13.49,0,0,0-2.5,1.44,10,10,0,0,0-2.28,2.22,6.28,6.28,0,0,0-1.1,2.13,4.47,4.47,0,0,0,0,1.86,5,5,0,0,0,.43,1.42,12,12,0,0,0,.68,1.06,13.59,13.59,0,0,0,1.26,1.48l3.52-2.5-1.47-2.07.17-.13,3,4.23-.17.12-.53-.73-3.37,2.39A11.5,11.5,0,0,1,129.56,46.27Z"/><path class="cls-1" d="M139.24,48.09a8.2,8.2,0,0,1,6.08-.53,6.93,6.93,0,0,1,3.87,8.6q-.91,2.27-4.41,3.72a8,8,0,0,1-6,.5,6.5,6.5,0,0,1-3.68-3.81,6.23,6.23,0,0,1-.27-4.62,5.25,5.25,0,0,1,1.51-2.13A10.42,10.42,0,0,1,139.24,48.09Zm9.53,3.14a4.12,4.12,0,0,0-3.08-2.48,9.46,9.46,0,0,0-5.64.89c-2.25.94-3.72,2-4.43,3.24a4.07,4.07,0,0,0-.23,3.79,4.12,4.12,0,0,0,3.09,2.49,9.51,9.51,0,0,0,5.62-.88q3.35-1.39,4.42-3.25A4.07,4.07,0,0,0,148.77,51.23Z"/><path class="cls-1" d="M139.49,71.7,139.34,70,154,68.72l.15,1.74L147.4,71l.58,6.8,6.73-.57.15,1.74-14.65,1.24-.14-1.74,7.7-.65-.58-6.8Z"/><path class="cls-1" d="M147.27,82.26a8.16,8.16,0,0,1,5.54,2.56,6.92,6.92,0,0,1-.89,9.39q-1.92,1.5-5.67,1.05a8,8,0,0,1-5.44-2.53,6.52,6.52,0,0,1-1.32-5.14,6.31,6.31,0,0,1,2-4.15,5.21,5.21,0,0,1,2.37-1.09A10.28,10.28,0,0,1,147.27,82.26ZM154,89.71A4.1,4.1,0,0,0,152.54,86a9.49,9.49,0,0,0-5.33-2q-3.63-.45-5.45.62a4.22,4.22,0,0,0-.62,6.88,9.38,9.38,0,0,0,5.31,2q3.6.45,5.44-.63A4.09,4.09,0,0,0,154,89.71Z"/><path class="cls-1" d="M138.47,95.57l.1-.26,13.12,6.88-.25.65-14.27-.65,11.18,8.89-.24.64-14.41-3.45.61-1.63,11.52,2.77-9.67-7.69.46-1.24,12.23.49Z"/><path class="cls-1" d="M140.24,125.12l-.18-.12,3.59-5.55L138.36,116,135,121.18l-.17-.12,3.33-5.15-6.53-4.21-3.84,5.94-.18-.11,4.79-7.41,12.35,8Z"/><path class="cls-1" d="M112.74,131.19q3.21-2.26,6-1.54a6.26,6.26,0,0,1,2.11,1.11,10.51,10.51,0,0,1,2.2,2.38,8.92,8.92,0,0,1,1.45,3.13,5.44,5.44,0,0,1-.05,2.87,8.2,8.2,0,0,1-3.21,4.14,12,12,0,0,1-1.59,1,8.62,8.62,0,0,1-1.26.54l-.45.14-.07-.21a10.91,10.91,0,0,0,3.25-1.6,5.12,5.12,0,0,0,2.2-3.33,6.1,6.1,0,0,0-.51-3.49,13.86,13.86,0,0,0-1.44-2.51,9.81,9.81,0,0,0-2.21-2.28,6.07,6.07,0,0,0-2.13-1.11,4.47,4.47,0,0,0-1.86,0,4.75,4.75,0,0,0-1.42.42,11.61,11.61,0,0,0-1.06.67,16,16,0,0,0-1.49,1.26l2.5,3.53,2.07-1.46.12.17-4.23,3-.12-.17.73-.52-2.38-3.38A11.53,11.53,0,0,1,112.74,131.19Z"/><path class="cls-1" d="M110.89,140.87a8.2,8.2,0,0,1,.51,6.07,6.95,6.95,0,0,1-8.62,3.85c-1.5-.62-2.74-2.09-3.7-4.42a8,8,0,0,1-.48-6,6.52,6.52,0,0,1,3.82-3.68,6.3,6.3,0,0,1,4.63-.25,5.23,5.23,0,0,1,2.11,1.52A9.89,9.89,0,0,1,110.89,140.87Zm-3.17,9.52a4.13,4.13,0,0,0,2.49-3.08,9.5,9.5,0,0,0-.87-5.64q-1.4-3.37-3.23-4.44a4.07,4.07,0,0,0-3.79-.25,4.12,4.12,0,0,0-2.49,3.09,9.32,9.32,0,0,0,.86,5.62c.92,2.24,2,3.71,3.23,4.43A4.07,4.07,0,0,0,107.72,150.39Z"/><path class="cls-1" d="M87.27,141,89,140.9l1.2,14.65-1.74.14L87.91,149l-6.8.56.55,6.74-1.74.14-1.19-14.65,1.73-.14.63,7.7,6.81-.56Z"/><path class="cls-1" d="M76.68,148.79a8.18,8.18,0,0,1-2.57,5.53,6.2,6.2,0,0,1-5,1.37,6.27,6.27,0,0,1-4.4-2.29c-1-1.28-1.35-3.17-1-5.67a8,8,0,0,1,2.55-5.44,6.52,6.52,0,0,1,5.14-1.3,6.26,6.26,0,0,1,4.14,2.07,5.21,5.21,0,0,1,1.09,2.37A10.05,10.05,0,0,1,76.68,148.79Zm-7.47,6.7a4.1,4.1,0,0,0,3.69-1.44,9.53,9.53,0,0,0,2-5.33c.3-2.42.1-4.23-.61-5.45a4.22,4.22,0,0,0-6.87-.64,9.45,9.45,0,0,0-2,5.31c-.3,2.39-.09,4.21.62,5.44A4.06,4.06,0,0,0,69.21,155.49Z"/><path class="cls-1" d="M63.39,139.94l.25.1-6.92,13.09-.64-.24.69-14.27-8.92,11.15-.65-.25,3.51-14.39,1.63.62-2.82,11.51,7.72-9.65,1.24.47L58,150.3Z"/><path class="cls-1" d="M33.86,141.63l.11-.18,5.55,3.61L43,139.78l-5.14-3.35.11-.17,5.14,3.34,4.24-6.51-5.93-3.86.11-.17,7.39,4.81-8,12.32Z"/><path class="cls-1" d="M27.86,114.09c1.5,2.15,2,4.16,1.51,6a5.87,5.87,0,0,1-1.11,2.12,10.54,10.54,0,0,1-2.39,2.18,8.55,8.55,0,0,1-3.13,1.44,5.43,5.43,0,0,1-2.87-.05,8.24,8.24,0,0,1-4.14-3.23,11.64,11.64,0,0,1-.94-1.59,7.48,7.48,0,0,1-.54-1.26l-.14-.45.21-.07a10.88,10.88,0,0,0,1.59,3.25,5.1,5.1,0,0,0,3.32,2.21,6,6,0,0,0,3.49-.5,12.6,12.6,0,0,0,2.51-1.43,9.84,9.84,0,0,0,2.3-2.19,6.24,6.24,0,0,0,1.11-2.13,4.47,4.47,0,0,0,0-1.86,4.84,4.84,0,0,0-.42-1.43c-.17-.31-.39-.66-.66-1.06a16,16,0,0,0-1.26-1.49l-3.54,2.48,1.46,2.08-.17.12-3-4.24.17-.12.52.74,3.39-2.38A11.75,11.75,0,0,1,27.86,114.09Z"/><path class="cls-1" d="M18.2,112.23a8.22,8.22,0,0,1-6.08.49,6.29,6.29,0,0,1-3.65-3.67,6.26,6.26,0,0,1-.17-5q.93-2.26,4.43-3.7a8,8,0,0,1,6-.46,6.53,6.53,0,0,1,3.66,3.84,6.32,6.32,0,0,1,.24,4.62,5.19,5.19,0,0,1-1.53,2.11A9.88,9.88,0,0,1,18.2,112.23ZM8.69,109a4.12,4.12,0,0,0,3.07,2.5,9.47,9.47,0,0,0,5.64-.85c2.25-.93,3.74-2,4.45-3.21a4.22,4.22,0,0,0-2.82-6.3,9.48,9.48,0,0,0-5.63.84q-3.35,1.38-4.43,3.22A4,4,0,0,0,8.69,109Z"/><path class="cls-1" d="M18.1,88.6l.13,1.74L3.58,91.49l-.14-1.74,6.74-.53-.53-6.81-6.74.53-.14-1.73,14.65-1.15.14,1.73-7.7.61.53,6.8Z"/><path class="cls-1" d="M10.38,78a8.14,8.14,0,0,1-5.52-2.58,6.22,6.22,0,0,1-1.36-5A6.35,6.35,0,0,1,5.8,66c1.29-1,3.18-1.33,5.68-1a8,8,0,0,1,5.43,2.56,6.5,6.5,0,0,1,1.28,5.15,6.22,6.22,0,0,1-2.08,4.13,5.1,5.1,0,0,1-2.37,1.08A9.82,9.82,0,0,1,10.38,78ZM3.7,70.5a4.09,4.09,0,0,0,1.43,3.69,9.5,9.5,0,0,0,5.32,2.06q3.63.47,5.46-.59A4.06,4.06,0,0,0,18,72.49a4.12,4.12,0,0,0-1.44-3.7,9.45,9.45,0,0,0-5.3-2.05c-2.4-.31-4.21-.11-5.45.6A4.08,4.08,0,0,0,3.7,70.5Z"/><path class="cls-1" d="M19.27,64.73l-.1.26L6.09,58l.25-.65,14.27.74-11.12-9,.25-.65,14.38,3.55-.63,1.63L12,50.84l9.63,7.76-.48,1.23L8.92,59.27Z"/><path class="cls-1" d="M17.67,35.2l.18.12-3.63,5.53,5.27,3.45,3.36-5.13.18.12-3.36,5.13,6.5,4.25L30,42.75l.18.12-4.83,7.38-12.3-8.06Z"/><path class="cls-1" d="M45.22,29.28q-3.22,2.25-6,1.5a6,6,0,0,1-2.11-1.12,10.52,10.52,0,0,1-2.18-2.39,8.81,8.81,0,0,1-1.43-3.14,5.33,5.33,0,0,1,.06-2.87,8.2,8.2,0,0,1,3.24-4.13,12.39,12.39,0,0,1,1.6-.94,8.62,8.62,0,0,1,1.26-.54l.45-.13.06.21a11,11,0,0,0-3.25,1.58,5.07,5.07,0,0,0-2.22,3.31,6,6,0,0,0,.49,3.5,13.07,13.07,0,0,0,1.42,2.51,9.84,9.84,0,0,0,2.19,2.3,6,6,0,0,0,2.12,1.12,4.52,4.52,0,0,0,1.87.05,4.85,4.85,0,0,0,1.42-.42A8.68,8.68,0,0,0,45.23,29a14.37,14.37,0,0,0,1.5-1.25l-2.47-3.55-2.09,1.45-.12-.17,4.26-3,.12.17-.74.52,2.36,3.39A11.42,11.42,0,0,1,45.22,29.28Z"/><path class="cls-1" d="M47.14,19.61a8.2,8.2,0,0,1-.47-6.08A6.25,6.25,0,0,1,50.35,9.9a6.32,6.32,0,0,1,5-.16q2.25.94,3.68,4.45a8,8,0,0,1,.43,6,6.47,6.47,0,0,1-3.84,3.64,6.27,6.27,0,0,1-4.62.23,5.32,5.32,0,0,1-2.11-1.54A10.15,10.15,0,0,1,47.14,19.61Zm3.23-9.49a4.12,4.12,0,0,0-2.51,3.06,9.47,9.47,0,0,0,.84,5.64c.91,2.26,2,3.74,3.19,4.46a4,4,0,0,0,3.79.27,4.11,4.11,0,0,0,2.52-3.07,9.48,9.48,0,0,0-.83-5.63c-.9-2.23-2-3.72-3.2-4.44A4,4,0,0,0,50.37,10.12Z"/><path class="cls-1" d="M70.76,19.6,69,19.73,67.92,5.07l1.73-.13.51,6.74L77,11.17l-.51-6.75,1.74-.13L79.3,19l-1.74.13L77,11.38l-6.8.51Z"/><path class="cls-1" d="M81.39,11.91A8.17,8.17,0,0,1,84,6.4a6.94,6.94,0,0,1,9.38,1q1.5,1.93,1,5.69a7.94,7.94,0,0,1-2.58,5.41,6.5,6.5,0,0,1-5.15,1.27,6.28,6.28,0,0,1-4.13-2.09,5.24,5.24,0,0,1-1.07-2.38A10.09,10.09,0,0,1,81.39,11.91ZM88.9,5.26a4.1,4.1,0,0,0-3.7,1.41A9.5,9.5,0,0,0,83.13,12c-.32,2.42-.13,4.23.57,5.46a4.23,4.23,0,0,0,6.87.68,9.46,9.46,0,0,0,2.07-5.29c.32-2.4.12-4.21-.58-5.45A4.06,4.06,0,0,0,88.9,5.26Z"/><path class="cls-1" d="M94.61,20.84l-.25-.1,7-13,.64.25-.78,14.26,9-11.09.65.25-3.59,14.37-1.63-.63,2.89-11.49-7.79,9.6-1.23-.48.6-12.22Z"/><path class="cls-1" d="M124.14,19.33l-.11.18-5.52-3.64L115,21.13l5.12,3.37-.12.18-5.12-3.38-4.27,6.49,5.9,3.89-.11.18L109.08,27l8.09-12.28Z"/></svg>