<?xml version="1.0" encoding="utf-8"?>
<!-- Generator: Adobe Illustrator 27.3.1, SVG Export Plug-In . SVG Version: 6.00 Build 0)  -->
<svg version="1.1" id="Camada_1" xmlns="http://www.w3.org/2000/svg" xmlns:xlink="http://www.w3.org/1999/xlink" x="0px" y="0px"
	 viewBox="0 0 219.4 213.5" style="enable-background:new 0 0 219.4 213.5;" xml:space="preserve">
<style type="text/css">
	.st0{fill:#FFFFFF;}
</style>
<g>
	<path class="st0" d="M196.4,106.7c0.2,48.1-39.6,87.9-88.8,86.7c-47.1-1.1-85.7-40.3-84.6-88.8c1.1-47.1,40.3-85.8,89-84.6
		C158.7,21.2,196.6,59.6,196.4,106.7z M111.8,150.9c10.5,0,20-1.3,29.3-4.2c6.5-2,12.7-4.6,17.9-9.1c6.7-5.8,7.5-12.8,2.1-19.9
		c-3.5-4.6-7.4-9-12.2-12.2c-5.8-3.9-11.9-7.3-17.9-11c-1.5-1-3.1-2-4.4-3.3c-2.3-2.3-2.4-5.6-0.2-8c1.2-1.3,2.7-2.4,4.3-3.1
		c4.8-2.2,9.9-3.4,15.1-3.8c7.5-0.5,14.7,0.8,22,2.1c3.6,0.6,6-0.4,8-3.5c0.6-1,1.1-2,1.5-3c1.1-3,0.4-5.9-2.4-7.5
		c-2.4-1.3-5.1-2.5-7.8-3c-13.3-2.1-26.6-1.3-39.5,2.6c-6.4,1.9-12.2,5.2-16.2,10.8c-5.3,7.6-6.7,15.8-2.8,24.5
		c1.8,4.1,5.3,6.9,9.1,9.2c4.7,2.8,9.7,5.2,14.4,8c2.5,1.5,5,3.1,7,5.1c2.9,2.7,2.5,6.5-0.6,9c-1.4,1.1-2.9,2-4.5,2.7
		c-6,2.6-12.2,3.9-18.7,3.7c-6-0.2-11.9-0.6-17.6-2.4c-7.8-2.5-13.2-7.4-14.5-15.8c-0.6-4-0.5-8-0.6-12.1c-0.1-3.5,0.3-7.1,0-10.6
		c-0.2-2.9-2-4.8-5-5.4c-2.9-0.6-5.8-0.4-8.6,0.6c-5,1.9-8.8,5.3-12,9.4c-8.4,10.6-13.8,22.7-16.8,35.9c-0.2,1-0.4,2.1-0.5,3.2
		c-0.1,2.8,0.8,3.6,3.5,3.4c2.6-0.1,4.8-1.4,6.1-3.5c1.5-2.6,2.8-5.5,3.8-8.3c1.8-4.9,3.3-10,5.3-14.9c1-2.4,2.8-4.6,4.4-6.7
		c1.6-2,4.1-1.7,5.2,0.8c0.6,1.4,0.8,3.1,0.9,4.7c0.3,4.8,0,9.8,0.8,14.5c1.6,9.5,7,16,16.8,18.3C95.4,150.1,104,150.6,111.8,150.9z
		"/>
</g>
</svg>
