<?xml version="1.0" encoding="utf-8"?>
<!-- Generator: Adobe Illustrator 27.3.1, SVG Export Plug-In . SVG Version: 6.00 Build 0)  -->
<svg version="1.1" id="Camada_1" xmlns="http://www.w3.org/2000/svg" xmlns:xlink="http://www.w3.org/1999/xlink" x="0px" y="0px"
	 viewBox="0 0 219.4 213.5" style="enable-background:new 0 0 219.4 213.5;" xml:space="preserve">
<style type="text/css">
	.st0{fill:#FFFFFF;}
</style>
<g>
	<path class="st0" d="M68.5,153c-1.8,0-3.6,0-5.4,0c-4.6,0-9.1,0-13.7,0c-0.7,0-1.1-0.2-1.3-0.9c-7.6-24-15.2-48-22.8-72
		c-2-6.4-4.1-12.8-6.1-19.2c-0.1-0.3-0.2-0.6-0.3-1c0.4,0,0.7,0,1,0c7,0,13.9,0,20.9,0c0.8,0,1.1,0.2,1.4,1.1
		c5.3,20.6,10.6,41.1,16,61.7c0.1,0.3,0.2,0.6,0.3,1.1c1-4.1,2-8,2.9-11.9c4.2-17,8.3-34,12.5-51.1c0.1-0.6,0.4-0.8,1-0.8
		c6.5,0,12.9,0,19.4,0c0.6,0,0.8,0.2,1,0.8c5,20.6,10.1,41.1,15.1,61.7c0.1,0.3,0.2,0.6,0.3,1.2c0.2-0.5,0.3-0.7,0.3-1
		c5.3-20.5,10.6-40.9,15.9-61.4c0.2-1,0.6-1.3,1.6-1.3c6.9,0,13.7-0.2,20.6-0.3c0.3,0,0.5,0,0.9,0c-0.1,0.4-0.2,0.6-0.2,0.9
		c-9.7,30.4-19.3,60.9-29,91.3c-0.2,0.6-0.4,0.9-1.1,0.9c-6.1,0-12.2,0-18.2,0c-0.7,0-1.1-0.2-1.3-0.9C95,132.4,89.9,113,84.8,93.6
		c-0.1-0.3-0.2-0.6-0.4-0.9C79.1,112.8,73.8,132.9,68.5,153z"/>
	<path class="st0" d="M169.7,138.4c0-8.8,6.6-15.5,15.3-15.6c8.8,0,15.4,6.5,15.4,15.3c0,9.1-6.4,15.7-15.2,15.7
		C176.3,153.9,169.8,147.4,169.7,138.4z"/>
</g>
</svg>
