<?xml version="1.0" encoding="utf-8"?>
<!-- Generator: Adobe Illustrator 27.3.1, SVG Export Plug-In . SVG Version: 6.00 Build 0)  -->
<svg version="1.1" id="Camada_1" xmlns="http://www.w3.org/2000/svg" xmlns:xlink="http://www.w3.org/1999/xlink" x="0px" y="0px"
	 viewBox="0 0 219.4 213.5" style="enable-background:new 0 0 219.4 213.5;" xml:space="preserve">
<style type="text/css">
	.st0{fill:#FFFFFF;}
</style>
<path class="st0" d="M198.3,46c0-15.7-12.1-27.8-27.8-27.8c-40.6,0-81.2,0-121.8,0c-1.2,0-2.4,0-3.6,0.1c-14,2-24.1,13.5-24.2,27.8
	c-0.1,40.3-0.1,80.6,0,121c0,16.2,12.2,28.2,28.3,28.2c20.2,0,40.3,0,60.5,0c20.2,0,40.3,0,60.5,0c1.6,0,3.3,0,4.9-0.3
	c14.2-2.6,23.4-13.7,23.4-28.2C198.4,126.5,198.4,86.3,198.3,46z M90.2,149c-0.2,6.6-5.4,11.7-12,11.7c-2.3,0-4.5,0-6.8,0
	c-6.2-0.1-11.4-4.9-11.7-11.1c-0.2-4.1-0.1-8.2-0.1-12.3c0-1.1,0.4-1.5,1.5-1.5c9.2,0,18.4,0,27.5,0c1.3,0,1.5,0.6,1.5,1.7
	c0,2,0,4.1,0,6.1C90.2,145.4,90.3,147.2,90.2,149z M124.1,113.3c-0.7,5.4-5.6,9.4-11.2,9.4c-17.4,0.1-34.8,0.1-52.2,0
	c-0.3,0-0.5-0.1-0.9-0.2c0-8.1,0-16.1,0-24.3c21.5,0,42.9,0,64.4,0C124.3,103.4,124.7,108.4,124.1,113.3z M159.5,74.6
	c-0.5,6.1-6,10.8-12.2,10.8c-28.6,0.1-57.2,0-85.7,0c-1.3,0-2-0.2-1.9-1.7c0.1-4.4-0.1-8.8,0.2-13.1c0.3-5.9,5.9-11,11.7-11.1
	c28.9,0,57.7,0,86.6,0c0.4,0,0.8,0,1.5,0.1C159.6,64.8,160,69.7,159.5,74.6z"/>
</svg>
