<?xml version="1.0" encoding="utf-8"?>
<!-- Generator: Adobe Illustrator 27.3.1, SVG Export Plug-In . SVG Version: 6.00 Build 0)  -->
<svg version="1.1" id="Camada_1" xmlns="http://www.w3.org/2000/svg" xmlns:xlink="http://www.w3.org/1999/xlink" x="0px" y="0px"
	 viewBox="0 0 219.4 213.5" style="enable-background:new 0 0 219.4 213.5;" xml:space="preserve">
<style type="text/css">
	.st0{fill:#FFFFFF;}
</style>
<g>
	<path class="st0" d="M157.4,17.6c0,2.9,0,5.7,0,8.6c0,9,0,17.9,0,26.9c0,1.4,0,2.8,0,4.2c0,0.6,0.2,0.8,0.8,0.8c0.1,0,0.3,0,0.4,0
		c12.8,0,25.6,0,38.4,0c0.1,0,0.2,0,0.4,0c0.1,0,0.2,0.1,0.3,0.1c0,0.1,0,0.2-0.1,0.3c-0.8,0.7-1.5,1.5-2.3,2.2
		c-6.8,6.2-13.6,12.4-20.5,18.5c-5.3,4.8-10.6,9.7-15.9,14.5c-1.4,1.3-2.1,2.8-2.1,4.7c0,3.2,0,6.4-0.1,9.7c0,5-0.1,9.9-0.1,14.9
		c0,2.6-0.8,4.7-2.7,6.6c-4.3,4.3-8.5,8.7-12.8,13.1c-4.3,4.4-8.6,8.8-12.9,13.2c-4.1,4.2-8.3,8.5-12.4,12.7
		c-4.2,4.3-8.3,8.6-12.5,12.8c-4.2,4.3-8.4,8.6-12.6,12.9c-0.5,0.5-1.1,1-1.8,1.6c0-0.6-0.1-1.1-0.1-1.6c0-3.2,0.1-6.4,0.1-9.7
		c0-3.6,0.1-7.3,0.1-10.9c0-1.3,0-2.5-0.1-3.8c-0.2-2.8,0.9-5.1,2.9-7c2.8-2.7,5.6-5.4,8.4-8.1c5.2-5.1,10.5-10.2,15.7-15.3
		c2.9-2.9,5.8-5.7,8.8-8.6c1.1-1.1,2.2-2.2,3.2-3.3c0.1-0.1,0.2-0.3,0.3-0.5c-0.2,0-0.4-0.1-0.6-0.1c-12.5,0-25.1,0-37.6,0
		c-0.2,0-0.4,0-0.6,0c0-12.9,0-25.8,0-38.7c-0.3,0.2-0.6,0.4-0.9,0.6c-3.1,2.8-6.4,5.6-9.4,8.5c-3.1,2.9-6.1,6-9.1,9.1
		c-3.5,3.6-6.9,7.3-10.3,10.9c-2,2.1-4,4.2-6,6.3c-0.5,0.6-1.1,1.1-1.6,1.7c-1,1.1-2.2,1.5-3.6,1.5c-2.3,0-4.7,0-7,0c-5,0-10,0-15,0
		c-1.5,0-3.1,0-4.7,0c0.3-0.4,0.6-0.8,0.9-1.1c3.2-3.3,6.4-6.5,9.5-9.7c6.1-6.3,12.3-12.5,18.5-18.8c2.9-3,5.9-6,8.9-9
		c4.3-4.3,8.6-8.7,12.9-13c2.6-2.7,5.3-5.3,7.9-8c2.2-2.3,4.5-4.5,6.7-6.8c1.5-1.5,3.3-2.2,5.3-2.2c3.9,0,7.8,0,11.7,0
		c3.2,0,6.4,0,9.6-0.1c0.8,0,1.7-0.1,2.5-0.2c1.3-0.2,2.4-0.9,3.3-1.8c4.6-4.7,9.3-9.3,13.9-14c3.6-3.7,7.3-7.4,10.9-11.1
		c4.2-4.3,8.4-8.7,12.6-13C157.1,17.8,157.2,17.7,157.4,17.6C157.3,17.6,157.4,17.6,157.4,17.6z"/>
</g>
</svg>
