<?xml version="1.0" encoding="utf-8"?>
<!-- Generator: Adobe Illustrator 27.3.1, SVG Export Plug-In . SVG Version: 6.00 Build 0)  -->
<svg version="1.1" id="Camada_1" xmlns="http://www.w3.org/2000/svg" xmlns:xlink="http://www.w3.org/1999/xlink" x="0px" y="0px"
	 viewBox="0 0 219.4 213.5" style="enable-background:new 0 0 219.4 213.5;" xml:space="preserve">
<g>
	<g>
		<defs>
			<path id="SVGID_1_" d="M160.6,55.9C153,35.2,133,20.4,109.7,20.4c-23.3,0-43.3,14.8-50.9,35.5c-20.7,7.7-35.4,27.6-35.4,50.9
				c0,23.3,14.8,43.3,35.5,50.9c7.7,20.7,27.6,35.4,50.9,35.4c23.3,0,43.2-14.8,50.9-35.4c20.7-7.7,35.5-27.6,35.5-50.9
				C196.1,83.5,181.3,63.6,160.6,55.9z M109.7,33.1c14.8,0,27.8,7.8,35.1,19.5c-1-0.1-2-0.1-3-0.1c-12,0-23.1,3.9-32.1,10.5
				c-9-6.6-20.1-10.5-32.1-10.5c-1,0-2,0-3,0.1C81.9,40.9,94.9,33.1,109.7,33.1z M69,66.2c2.8-0.6,5.6-0.9,8.5-0.9
				c8.3,0,16.1,2.5,22.6,6.7c-3.9,4.7-7.1,10.1-9.3,15.9c-1.9,5-3,10.3-3.3,15.8c-0.1,1-0.1,2-0.1,3.1c0,1,0,2,0.1,3
				c-1.5-0.9-2.9-1.9-4.2-3c-3.3-2.7-6.2-5.9-8.5-9.5c-4.2-6.5-6.7-14.3-6.7-22.6C68.2,71.7,68.5,68.9,69,66.2z M119.1,106.8
				c0,2.9-0.3,5.7-0.9,8.5c-2.8,0.6-5.6,0.9-8.5,0.9s-5.8-0.3-8.5-0.9c-0.6-2.7-0.9-5.6-0.9-8.5c0-2.9,0.3-5.8,0.9-8.6
				c2.8-0.6,5.6-0.9,8.5-0.9s5.8,0.3,8.5,0.9C118.8,101,119.1,103.8,119.1,106.8z M55.4,138.8c0,1,0,2,0.1,3.1
				c-11.6-7.4-19.4-20.3-19.4-35.1c0-14.8,7.8-27.7,19.4-35.1c-0.1,1-0.1,2-0.1,3c0,12,3.9,23.1,10.5,32.1
				C59.3,115.7,55.4,126.8,55.4,138.8z M69.1,147.4c-0.6-2.8-0.9-5.6-0.9-8.6c0-8.3,2.5-16.1,6.7-22.6c4.7,3.9,10.1,7.1,16,9.3
				c5,1.8,10.3,3,15.8,3.3c1,0.1,2,0.1,3,0.1s2,0,3-0.1c-0.9,1.5-1.9,2.9-3,4.2c-2.7,3.3-5.9,6.2-9.5,8.5
				c-6.5,4.2-14.3,6.7-22.6,6.7C74.7,148.3,71.8,148,69.1,147.4z M109.7,180.3c-14.7,0-27.7-7.7-35.1-19.4c1,0.1,2,0.1,3,0.1
				c12,0,23.1-3.9,32.1-10.5c9,6.6,20.1,10.5,32.1,10.5c1,0,2,0,3-0.1C137.4,172.6,124.4,180.3,109.7,180.3z M150.3,147.4
				c-2.8,0.6-5.6,0.9-8.5,0.9c-8.3,0-16.1-2.5-22.6-6.7c4-4.7,7.1-10.1,9.3-16c1.8-5,3-10.3,3.3-15.8c0.1-1,0.1-2,0.1-3
				c0-1,0-2-0.1-3.1c1.5,0.9,2.9,1.9,4.2,3c3.3,2.7,6.2,5.9,8.5,9.5c4.2,6.5,6.7,14.3,6.7,22.6C151.2,141.8,150.9,144.6,150.3,147.4
				z M144.5,97.2c-4.7-4-10.1-7.1-16-9.3c-5-1.8-10.3-3-15.8-3.3c-1-0.1-2-0.1-3-0.1s-2,0-3,0.1c0.9-1.4,1.9-2.8,3-4.1
				c2.7-3.3,5.9-6.2,9.5-8.5c6.5-4.2,14.3-6.7,22.6-6.7c2.9,0,5.8,0.3,8.5,0.9c0.6,2.7,0.9,5.6,0.9,8.5
				C151.2,83,148.7,90.7,144.5,97.2z M163.9,141.9c0.1-1,0.1-2,0.1-3.1c0-12-3.9-23.1-10.5-32.1c6.6-9,10.5-20.1,10.5-32.1
				c0-1,0-2-0.1-3c11.6,7.4,19.4,20.3,19.4,35.1C183.3,121.6,175.5,134.5,163.9,141.9z"/>
		</defs>
		<use xlink:href="#SVGID_1_"  style="overflow:visible;fill:#FFFFFF;"/>
		<clipPath id="SVGID_00000098191916305879639170000017655000139475960991_">
			<use xlink:href="#SVGID_1_"  style="overflow:visible;"/>
		</clipPath>
	</g>
</g>
</svg>
