<?xml version="1.0" encoding="utf-8"?>
<!-- Generator: Adobe Illustrator 27.3.1, SVG Export Plug-In . SVG Version: 6.00 Build 0)  -->
<svg version="1.1" id="Camada_1" xmlns="http://www.w3.org/2000/svg" xmlns:xlink="http://www.w3.org/1999/xlink" x="0px" y="0px"
	 viewBox="0 0 219.4 213.5" style="enable-background:new 0 0 219.4 213.5;" xml:space="preserve">
<style type="text/css">
	.st0{fill:#FFFFFF;}
</style>
<path class="st0" d="M197.6,152.5c-17.6,0-35,0-52.3,0c-1.4-5.4-1.2-5.7,4.2-5.7c2.9,0,5.8,0,8.7-0.1c0.3,0,0.5-0.1,1-0.2
	c0.1-0.8,0.4-1.7,0.4-2.5c0-20.4,0-40.7-0.1-61.1c0-3.2-0.4-6.3-1-9.5c-0.7-4.2-3.1-6.3-7.4-6.3c-11.6-0.1-19.2,6.7-24,16.1
	c-3.1,6.2-4.9,13.5-5.3,20.5c-0.8,14.1-0.2,28.3-0.2,42.9c4.4,0,9.1,0,13.9,0c0,2.2,0,3.9,0,5.8c-17.1,0-34,0-51.3,0
	c0-1.8,0-3.4,0-5.6c4.7,0,9.4,0,14.3,0c0.1-1.5,0.3-2.5,0.3-3.5c-0.1-20.2-0.3-40.5-0.5-60.7c0-2.8-0.4-5.5-0.8-8.3
	c-0.7-4.9-3.3-7-8.3-7.4c-7.2-0.5-12.9,2.4-17.5,7.6c-6.4,7.1-10.7,15.2-10.8,24.9c-0.1,15.6,0,31.1,0,47.2c4.1,0,8.7,0,13.6,0
	c0,2.2,0,3.9,0,5.8c-17.5,0-34.9,0-52.6,0c0-1.8,0-3.5,0-5.6c5.2,0,10.3,0,15.7,0c0-26.2,0-51.9,0-78c-5,0-10.1,0-15.6,0
	c0-2.1,0-3.9,0-5.8c12.6-0.4,25.1-0.8,38.1-1.2c0,6.4,0,12.9,0,19.4c0.2,0.1,0.5,0.1,0.7,0.2c0.8-1.4,1.7-2.8,2.5-4.2
	c9.1-14.6,28.6-20.5,44.3-13.2c8.1,3.8,11.6,10.8,13.2,20c1.2-2.1,2.1-3.6,3-5.1c8.1-13.7,20.3-19.2,35.8-17.3
	c13.4,1.6,21.6,11.2,22,26.1c0.4,18,0.3,36,0.4,54c0,1.5,0,3.1,0,5.1c5.5,0,10.5,0,15.7,0"/>
</svg>
