<?xml version="1.0" encoding="utf-8"?>
<!-- Generator: Adobe Illustrator 27.3.1, SVG Export Plug-In . SVG Version: 6.00 Build 0)  -->
<svg version="1.1" id="Livello_1" xmlns="http://www.w3.org/2000/svg" xmlns:xlink="http://www.w3.org/1999/xlink" x="0px" y="0px"
	 viewBox="0 0 203.3 202.9" style="enable-background:new 0 0 203.3 202.9;" xml:space="preserve">
<style type="text/css">
	.st0{fill:#FFFFFF;}
</style>
<g>
	<path class="st0" d="M107.3,19.7c-1.3-0.1-2.4-0.4-3.4-0.9c-1-0.5-1.8-1.2-2.4-2.1c-0.6-0.9-1-1.9-1.1-3l2.7-0.2
		c0.2,1.1,0.7,2,1.6,2.7c0.8,0.7,1.8,1,3,1.1c0.7,0,1.4,0,2-0.2c0.6-0.2,1.1-0.5,1.5-0.9s0.6-0.9,0.7-1.5c0-0.3,0-0.6-0.1-0.9
		c-0.1-0.3-0.2-0.5-0.4-0.7c-0.2-0.2-0.4-0.4-0.7-0.5c-0.3-0.2-0.6-0.3-0.9-0.4l-4.5-1.7c-0.4-0.2-0.9-0.4-1.3-0.6S103,9.4,102.6,9
		s-0.6-0.8-0.9-1.3s-0.3-1.2-0.2-1.9c0.1-1.1,0.4-2,1-2.8c0.6-0.7,1.4-1.3,2.4-1.6c1-0.3,2.1-0.5,3.3-0.4c1.2,0.1,2.3,0.4,3.2,0.9
		c0.9,0.5,1.7,1.1,2.3,1.9c0.6,0.8,1,1.8,1.1,2.9L112.1,7c-0.1-0.7-0.3-1.3-0.7-1.8C111,4.7,110.6,4.3,110,4s-1.2-0.5-1.9-0.5
		c-0.7-0.1-1.3,0-1.8,0.2c-0.6,0.2-1,0.5-1.4,0.8c-0.4,0.4-0.5,0.8-0.6,1.3c0,0.5,0.1,0.9,0.4,1.2c0.3,0.3,0.6,0.6,1,0.8
		s0.8,0.4,1.2,0.5l3.3,1.2c0.4,0.1,0.9,0.3,1.4,0.6c0.5,0.2,1,0.5,1.5,0.9c0.5,0.4,0.9,0.9,1.1,1.5c0.3,0.6,0.4,1.3,0.3,2.2
		c-0.1,0.9-0.3,1.7-0.7,2.4c-0.4,0.7-0.9,1.2-1.6,1.6c-0.7,0.4-1.4,0.7-2.3,0.9C109.1,19.7,108.2,19.8,107.3,19.7z"/>
	<path class="st0" d="M116,20.2l4.5-17.4l7,1.8c0.2,0,0.4,0.1,0.6,0.2c0.2,0.1,0.5,0.2,0.7,0.3c0.9,0.4,1.7,0.9,2.2,1.6
		c0.5,0.7,0.8,1.4,1,2.3c0.1,0.9,0.1,1.8-0.2,2.7c-0.4,1.4-1,2.5-2,3.3c-1,0.8-2.2,1.2-3.7,1.1l-1.1-0.1l-4.9-1.3l-1.6,6.3L116,20.2
		z M120.8,12.2l4.4,1.1c0.2,0,0.3,0.1,0.5,0.1c0.2,0,0.4,0.1,0.6,0.1c0.5,0,1-0.1,1.4-0.4s0.7-0.6,1-1c0.2-0.4,0.4-0.8,0.5-1.2
		c0.1-0.4,0.2-0.9,0.1-1.3c0-0.5-0.2-0.9-0.4-1.3c-0.2-0.4-0.6-0.7-1.1-1c-0.2-0.1-0.3-0.2-0.5-0.2S127,7,126.9,6.9l-4.4-1.1
		L120.8,12.2z M126.2,22.8l-1.6-8l2.7,0l1.8,8.7L126.2,22.8z"/>
	<path class="st0" d="M137.5,27.8c-1.6-0.8-2.8-1.8-3.6-3.1s-1.2-2.7-1.2-4.2c0-1.6,0.4-3.2,1.2-4.8c0.8-1.7,1.8-3,3.1-4
		c1.2-1,2.6-1.5,4.1-1.7c1.5-0.2,3,0.2,4.7,1c1.6,0.8,2.8,1.8,3.6,3.1c0.8,1.3,1.2,2.7,1.2,4.2c0,1.6-0.4,3.2-1.2,4.8
		c-0.8,1.7-1.8,3-3,4c-1.2,1-2.6,1.5-4.1,1.7C140.7,28.9,139.1,28.6,137.5,27.8z M138.6,25.6c1.1,0.6,2.2,0.8,3.2,0.6
		c1-0.2,1.9-0.6,2.8-1.3s1.6-1.7,2.2-3c0.6-1.2,0.9-2.4,1-3.5c0.1-1.1-0.2-2.1-0.7-3c-0.5-0.9-1.3-1.6-2.5-2.2
		c-1.1-0.6-2.2-0.8-3.2-0.6c-1,0.1-1.9,0.6-2.8,1.3c-0.8,0.8-1.6,1.7-2.2,3c-0.6,1.2-1,2.4-1,3.5s0.2,2.1,0.7,3
		C136.6,24.3,137.5,25,138.6,25.6z"/>
	<path class="st0" d="M146.8,32.5l10.7-14.5l2.1,1.6l-9.2,12.5l6.6,4.8l-1.5,2L146.8,32.5z"/>
	<path class="st0" d="M156.8,40.1l12.9-12.5l1.8,1.9l-11.2,10.8l5.7,5.9l-1.8,1.7L156.8,40.1z"/>
	<path class="st0" d="M167.5,51.6l15.2-9.6l3,4.8c0.1,0.1,0.3,0.4,0.5,0.8c0.2,0.4,0.4,0.8,0.6,1.2c0.6,1.3,0.8,2.6,0.6,3.8
		c-0.2,1.3-0.7,2.4-1.5,3.5s-1.9,2.1-3.2,2.9c-1.3,0.8-2.6,1.4-4,1.6c-1.3,0.3-2.6,0.2-3.8-0.1s-2.3-1.1-3.2-2.2
		c-0.3-0.3-0.5-0.7-0.8-1s-0.4-0.6-0.5-0.8L167.5,51.6z M171,52.5l1.6,2.5c0.2,0.2,0.3,0.5,0.6,0.8c0.2,0.3,0.4,0.6,0.6,0.8
		c0.6,0.7,1.4,1.1,2.2,1.2s1.7,0.1,2.6-0.2c0.9-0.3,1.8-0.7,2.7-1.2c0.9-0.6,1.6-1.2,2.3-1.9c0.6-0.7,1-1.5,1.2-2.3
		c0.2-0.8,0.1-1.6-0.2-2.5c-0.1-0.3-0.3-0.6-0.5-0.9c-0.2-0.3-0.4-0.6-0.5-0.9l-1.6-2.5L171,52.5z"/>
	<path class="st0" d="M178.3,72.7c-0.6-1.7-0.8-3.3-0.5-4.7c0.3-1.5,1-2.8,2.1-3.9c1.1-1.1,2.5-2,4.2-2.7c1.7-0.7,3.4-0.9,4.9-0.8
		c1.6,0.1,2.9,0.7,4.1,1.6s2.1,2.2,2.7,3.9c0.6,1.7,0.8,3.3,0.5,4.7c-0.3,1.5-1,2.8-2.1,3.9c-1.1,1.1-2.5,2-4.2,2.7
		c-1.7,0.7-3.4,0.9-4.9,0.8s-2.9-0.7-4.1-1.6C179.9,75.7,179,74.4,178.3,72.7z M180.7,71.9c0.4,1.2,1.1,2.1,1.9,2.7
		c0.8,0.6,1.8,0.9,2.9,0.9c1.1,0,2.3-0.2,3.6-0.7c1.3-0.5,2.3-1.1,3.2-1.9c0.8-0.8,1.3-1.6,1.6-2.6c0.2-1,0.1-2.1-0.3-3.3
		c-0.4-1.2-1.1-2.1-1.9-2.7s-1.8-0.9-2.9-0.9c-1.1,0-2.3,0.2-3.6,0.7s-2.3,1.1-3.2,1.8c-0.8,0.8-1.3,1.6-1.6,2.6
		C180.1,69.6,180.2,70.7,180.7,71.9z"/>
	<path class="st0" d="M182.5,85l17.2-7.4l0.3,2.7L187,85.8l14,2.1l0.3,2.7l-13.1,5.4l14,2.1l0.3,2.7l-18.5-3l-0.3-2.6l12.9-5.5
		l-13.8-2.2L182.5,85z"/>
	<path class="st0" d="M184.2,104.2l17.9,2.1l-0.3,2.6l-14.3,7.2l13.3,1.6l-0.3,2.6l-17.9-2.1l0.3-2.6l14.3-7.2l-13.3-1.6
		L184.2,104.2z"/>
	<path class="st0" d="M169,148c0.7-1.1,1.6-1.9,2.5-2.5c1-0.6,2-0.9,3-1c1.1-0.1,2.1,0.1,3.2,0.6l-1.2,2.5c-1.1-0.4-2.1-0.4-3.1,0
		s-1.8,1-2.5,2c-0.4,0.6-0.7,1.2-0.9,1.8s-0.2,1.2,0,1.8s0.5,1,1,1.3c0.3,0.2,0.5,0.3,0.8,0.4c0.3,0,0.5,0,0.8,0s0.5-0.2,0.8-0.3
		s0.5-0.3,0.8-0.6l3.7-3c0.4-0.3,0.8-0.6,1.2-0.8c0.4-0.3,0.9-0.5,1.4-0.6c0.5-0.1,1-0.1,1.6,0s1.1,0.3,1.7,0.8
		c0.9,0.6,1.5,1.4,1.8,2.3c0.3,0.9,0.4,1.9,0.1,2.9c-0.2,1-0.7,2-1.4,3c-0.7,1-1.5,1.8-2.4,2.3c-0.9,0.6-1.8,0.9-2.8,1
		c-1,0.1-2-0.1-3.1-0.5l1.2-2.6c0.6,0.3,1.3,0.4,1.9,0.3c0.6-0.1,1.2-0.3,1.8-0.6s1-0.8,1.4-1.4c0.4-0.5,0.7-1.1,0.8-1.7
		c0.1-0.6,0.1-1.1,0-1.6s-0.4-0.9-0.8-1.2c-0.4-0.3-0.8-0.4-1.2-0.3c-0.4,0.1-0.8,0.2-1.2,0.5c-0.4,0.3-0.8,0.5-1.1,0.8l-2.7,2.2
		c-0.3,0.3-0.7,0.6-1.2,0.9s-1,0.6-1.5,0.8c-0.6,0.2-1.2,0.3-1.8,0.2c-0.7-0.1-1.4-0.3-2.1-0.8c-0.7-0.5-1.3-1.1-1.7-1.8
		c-0.4-0.7-0.5-1.4-0.6-2.2c0-0.8,0.1-1.6,0.4-2.4C168.1,149.6,168.5,148.8,169,148z"/>
	<path class="st0" d="M156.7,162.7l7.6,2.8l-1.4,2.3l-8.4-3L156.7,162.7z M164.2,155.3l12.5,12.9l-5.2,5.1c-0.1,0.1-0.3,0.3-0.5,0.4
		c-0.2,0.2-0.4,0.3-0.6,0.5c-0.8,0.6-1.7,0.9-2.5,1c-0.8,0.1-1.7,0-2.5-0.4c-0.8-0.3-1.5-0.9-2.2-1.6c-1-1-1.6-2.2-1.8-3.4
		s0.1-2.5,1-3.7l0.7-0.8l3.7-3.5l-4.5-4.6L164.2,155.3z M168.6,163.6l-3.3,3.2c-0.1,0.1-0.2,0.2-0.4,0.4c-0.1,0.2-0.3,0.3-0.4,0.5
		c-0.3,0.5-0.4,0.9-0.4,1.4s0.1,0.9,0.3,1.3c0.2,0.4,0.5,0.8,0.8,1.1c0.3,0.3,0.7,0.6,1.1,0.8c0.4,0.2,0.8,0.3,1.3,0.3
		c0.5,0,0.9-0.1,1.4-0.4c0.2-0.1,0.3-0.2,0.5-0.3c0.2-0.1,0.3-0.3,0.4-0.4l3.3-3.2L168.6,163.6z"/>
	<path class="st0" d="M146.6,169.9c1.5-1,3-1.5,4.5-1.5c1.5,0,2.9,0.3,4.2,1.2c1.3,0.8,2.5,2,3.5,3.5c1,1.6,1.6,3.1,1.9,4.6
		c0.2,1.5,0,3-0.6,4.3c-0.6,1.4-1.7,2.5-3.2,3.5c-1.5,1-3,1.5-4.5,1.5c-1.5,0-2.9-0.3-4.2-1.2c-1.3-0.8-2.5-2-3.5-3.5
		c-1-1.6-1.6-3.1-1.9-4.6c-0.2-1.5,0-3,0.6-4.3S145.1,170.9,146.6,169.9z M148,172c-1.1,0.7-1.8,1.5-2.2,2.5c-0.4,0.9-0.5,2-0.3,3.1
		c0.2,1.1,0.7,2.2,1.5,3.4c0.8,1.1,1.6,2,2.5,2.7c0.9,0.6,1.9,0.9,2.9,1c1,0,2.1-0.3,3.1-1c1.1-0.7,1.8-1.5,2.2-2.4s0.5-2,0.3-3.1
		c-0.2-1.1-0.7-2.2-1.5-3.4c-0.7-1.2-1.6-2-2.5-2.7c-0.9-0.6-1.9-0.9-2.9-1C150.1,170.9,149.1,171.3,148,172z"/>
	<path class="st0" d="M137.8,175.5l7,16.6l-2.4,1l-6-14.3l-7.5,3.2l-1-2.3L137.8,175.5z"/>
	<path class="st0" d="M126.2,180.1l4.4,17.5l-2.5,0.6l-3.8-15.1l-7.9,2l-0.6-2.4L126.2,180.1z"/>
	<path class="st0" d="M110.9,183.5l0.5,18l-5.6,0.2c-0.2,0-0.5,0-0.9,0c-0.5,0-0.9,0-1.3-0.1c-1.4-0.1-2.6-0.6-3.6-1.4
		c-1-0.8-1.7-1.8-2.3-3.1c-0.5-1.3-0.8-2.7-0.9-4.2c0-1.5,0.2-2.9,0.6-4.2c0.5-1.3,1.2-2.4,2.1-3.2c0.9-0.9,2.1-1.4,3.5-1.6
		c0.4-0.1,0.8-0.1,1.3-0.1c0.5,0,0.8,0,0.9,0L110.9,183.5z M108.3,186l-3,0.1c-0.3,0-0.6,0-1,0.1c-0.4,0-0.7,0.1-1,0.1
		c-0.9,0.2-1.6,0.6-2.2,1.3c-0.6,0.6-1,1.4-1.2,2.3c-0.2,0.9-0.3,1.9-0.3,2.9c0,1.1,0.2,2,0.5,2.9c0.3,0.9,0.7,1.6,1.3,2.2
		c0.6,0.6,1.3,1,2.2,1.1c0.3,0,0.7,0.1,1,0.1s0.7,0,1,0l3-0.1L108.3,186z"/>
	<path class="st0" d="M87.1,182c1.8,0.3,3.2,1,4.3,2c1.1,1,1.9,2.2,2.3,3.8c0.4,1.5,0.5,3.2,0.1,5c-0.3,1.8-0.9,3.4-1.9,4.6
		s-2.1,2.2-3.4,2.7c-1.4,0.6-3,0.7-4.7,0.4c-1.8-0.3-3.2-1-4.3-2c-1.1-1-1.9-2.3-2.3-3.8c-0.4-1.5-0.4-3.2-0.1-5
		c0.3-1.8,0.9-3.4,1.8-4.6c0.9-1.3,2.1-2.2,3.4-2.7C83.8,181.8,85.4,181.7,87.1,182z M86.7,184.5c-1.3-0.2-2.3-0.2-3.3,0.3
		c-0.9,0.4-1.7,1.1-2.3,2.1c-0.6,0.9-1,2.1-1.3,3.4c-0.2,1.4-0.2,2.6,0,3.7c0.2,1.1,0.7,2,1.5,2.7c0.7,0.7,1.7,1.2,3,1.4
		c1.3,0.2,2.3,0.2,3.3-0.3s1.7-1.1,2.3-2.1c0.6-1,1-2.1,1.3-3.5c0.2-1.4,0.3-2.6,0-3.7c-0.2-1.1-0.7-2-1.5-2.7
		C89,185.2,88,184.7,86.7,184.5z"/>
	<path class="st0" d="M74.4,179.4l-2.5,18.6l-2.5-1.1l2-14l-8.9,10.9l-2.5-1.1l2-14l-9,10.9l-2.5-1.1l12-14.4l2.4,1L63,189.1l9-10.8
		L74.4,179.4z"/>
	<path class="st0" d="M57.1,171l-11,14.3l-2.1-1.6l1.1-16L37,178.2l-2.1-1.6l11-14.3L48,164l-1.2,16l8.2-10.6L57.1,171z"/>
	<path class="st0" d="M27.2,135.5c0.5,1.2,0.8,2.3,0.9,3.5c0,1.1-0.2,2.2-0.7,3.1c-0.5,1-1.2,1.8-2.1,2.4l-1.5-2.3
		c0.9-0.7,1.4-1.6,1.6-2.6c0.2-1.1,0-2.1-0.4-3.2c-0.3-0.7-0.7-1.2-1.1-1.7c-0.5-0.5-1-0.8-1.5-0.9c-0.5-0.2-1.1-0.1-1.6,0.1
		c-0.3,0.1-0.5,0.3-0.7,0.5c-0.2,0.2-0.3,0.4-0.4,0.7c-0.1,0.3-0.1,0.5-0.1,0.8c0,0.3,0,0.6,0.1,1l0.7,4.8c0.1,0.5,0.1,1,0.1,1.5
		c0,0.5-0.1,1-0.2,1.5c-0.2,0.5-0.4,1-0.8,1.4c-0.4,0.4-0.9,0.8-1.5,1.1c-1,0.5-2,0.6-2.9,0.4c-0.9-0.2-1.8-0.7-2.6-1.4
		c-0.8-0.7-1.4-1.6-1.9-2.7c-0.5-1.1-0.8-2.2-0.8-3.2c0-1,0.2-2,0.6-2.9c0.4-0.9,1.1-1.7,2-2.4l1.6,2.3c-0.6,0.4-1,0.9-1.2,1.5
		c-0.3,0.6-0.4,1.2-0.4,1.8c0,0.6,0.2,1.3,0.4,1.9c0.3,0.6,0.6,1.1,1,1.5s0.9,0.7,1.4,0.8s1,0.1,1.4-0.1c0.5-0.2,0.8-0.5,0.9-0.9
		c0.2-0.4,0.2-0.8,0.2-1.3c0-0.5-0.1-0.9-0.1-1.3l-0.5-3.4c-0.1-0.4-0.1-0.9-0.2-1.5c0-0.6,0-1.1,0.1-1.7c0.1-0.6,0.4-1.2,0.7-1.7
		c0.4-0.5,1-1,1.8-1.4c0.8-0.4,1.6-0.5,2.4-0.5c0.8,0,1.5,0.3,2.2,0.6c0.7,0.4,1.3,0.9,1.9,1.6C26.3,134,26.8,134.7,27.2,135.5z"/>
	<path class="st0" d="M23.4,127.6L5.9,132l-1.8-7.1c0-0.2-0.1-0.4-0.1-0.6c-0.1-0.3-0.1-0.5-0.1-0.7c-0.1-1,0-1.9,0.4-2.7
		c0.3-0.8,0.9-1.4,1.6-1.9c0.7-0.5,1.5-0.9,2.5-1.1c1.4-0.3,2.7-0.3,3.9,0.2c1.2,0.5,2.1,1.4,2.7,2.7l0.4,1l1.2,4.9l6.3-1.6
		L23.4,127.6z M14.1,127.3l-1.1-4.4c0-0.2-0.1-0.3-0.2-0.5c-0.1-0.2-0.1-0.4-0.2-0.5c-0.3-0.5-0.6-0.8-1-1.1
		c-0.4-0.2-0.8-0.4-1.3-0.4c-0.5,0-0.9,0-1.3,0.1c-0.4,0.1-0.8,0.3-1.2,0.5c-0.4,0.2-0.7,0.6-1,1c-0.2,0.4-0.4,0.9-0.4,1.4
		c0,0.2,0,0.4,0,0.6c0,0.2,0.1,0.4,0.1,0.5l1.1,4.4L14.1,127.3z M20.8,117.4l-6.2,5.2l-1.3-2.4l6.8-5.7L20.8,117.4z"/>
	<path class="st0" d="M19.8,105.1c0.1,1.8-0.2,3.3-1,4.6c-0.7,1.3-1.8,2.3-3.2,3.1c-1.4,0.7-3,1.1-4.9,1.2c-1.9,0.1-3.5-0.2-4.9-0.8
		s-2.6-1.5-3.4-2.8c-0.8-1.2-1.3-2.7-1.4-4.5c-0.1-1.8,0.2-3.3,1-4.6c0.7-1.3,1.8-2.3,3.2-3c1.4-0.7,3-1.1,4.9-1.2
		c1.9-0.1,3.5,0.2,4.9,0.8c1.4,0.6,2.6,1.5,3.4,2.8C19.3,101.8,19.8,103.3,19.8,105.1z M17.3,105.2c0-1.3-0.4-2.3-1-3.1
		c-0.6-0.8-1.5-1.4-2.5-1.8c-1.1-0.4-2.3-0.5-3.6-0.5c-1.4,0.1-2.6,0.3-3.6,0.8c-1,0.5-1.8,1.1-2.3,2c-0.5,0.9-0.8,1.9-0.7,3.2
		c0,1.3,0.4,2.3,1,3.1c0.6,0.8,1.4,1.4,2.5,1.8c1.1,0.4,2.3,0.5,3.6,0.5c1.4-0.1,2.6-0.3,3.6-0.8c1-0.5,1.8-1.1,2.3-2
		C17.2,107.6,17.4,106.5,17.3,105.2z"/>
	<path class="st0" d="M19.5,94.7L1.7,92.2l0.4-2.6l15.4,2.1l1.1-8.1L21,84L19.5,94.7z"/>
	<path class="st0" d="M21.5,82.3L4.2,77.2L5,74.7l14.9,4.4l2.3-7.8l2.4,0.7L21.5,82.3z"/>
	<path class="st0" d="M26.4,67.4l-15.7-8.8l2.7-4.9c0.1-0.1,0.2-0.4,0.5-0.8s0.5-0.8,0.7-1.1c0.8-1.1,1.9-1.9,3.1-2.4
		c1.2-0.4,2.5-0.6,3.8-0.4c1.4,0.2,2.7,0.7,4,1.4c1.3,0.7,2.4,1.6,3.3,2.7c0.9,1.1,1.4,2.2,1.7,3.4c0.3,1.2,0.1,2.5-0.4,3.8
		c-0.2,0.4-0.3,0.8-0.5,1.2s-0.4,0.7-0.4,0.8L26.4,67.4z M25.5,63.9l1.4-2.6c0.1-0.2,0.3-0.5,0.5-0.9c0.2-0.3,0.3-0.7,0.4-1
		c0.3-0.9,0.3-1.7,0-2.5c-0.3-0.8-0.7-1.5-1.4-2.2c-0.7-0.7-1.4-1.3-2.3-1.8c-0.9-0.5-1.8-0.9-2.8-1.1c-0.9-0.2-1.8-0.2-2.6,0
		c-0.8,0.2-1.5,0.7-2.1,1.4c-0.2,0.2-0.4,0.5-0.6,0.9c-0.2,0.3-0.4,0.6-0.5,0.9l-1.4,2.6L25.5,63.9z"/>
	<path class="st0" d="M39.8,47.8c-1.2,1.4-2.5,2.3-3.9,2.7c-1.4,0.4-2.9,0.5-4.4,0c-1.5-0.4-3-1.2-4.4-2.5s-2.4-2.5-3-4
		c-0.6-1.4-0.8-2.9-0.6-4.4c0.2-1.5,0.9-2.9,2.1-4.2c1.2-1.4,2.5-2.2,3.9-2.7s2.9-0.5,4.4,0c1.5,0.4,3,1.2,4.4,2.5s2.4,2.5,3,4
		s0.8,2.9,0.6,4.4C41.7,45,40.9,46.4,39.8,47.8z M37.9,46.2c0.8-1,1.3-1.9,1.5-3c0.1-1-0.1-2-0.6-3c-0.5-1-1.3-2-2.3-2.9
		c-1-0.9-2.1-1.5-3.1-1.9c-1.1-0.4-2.1-0.4-3.1-0.1s-1.9,0.9-2.7,1.8c-0.8,1-1.3,1.9-1.5,3c-0.1,1,0.1,2,0.6,3c0.5,1,1.3,2,2.3,2.9
		s2.1,1.5,3.1,1.9c1.1,0.4,2.1,0.4,3.1,0.1S37.1,47.1,37.9,46.2z"/>
	<path class="st0" d="M48.6,38.2L33.9,26.6l2.2-1.6l11,8.9l-4.8-13.3l2.2-1.6l11,8.9l-4.8-13.3l2.2-1.6l6.2,17.7L57,32.2l-11-8.7
		l4.7,13.2L48.6,38.2z"/>
	<path class="st0" d="M64.6,27.6L58,10.9l2.5-1l13.2,9.2L68.7,6.6l2.5-1l6.6,16.7l-2.5,1l-13.2-9.2l4.9,12.4L64.6,27.6z"/>
</g>
</svg>
