<?xml version="1.0" encoding="utf-8"?>
<!-- Generator: Adobe Illustrator 27.3.1, SVG Export Plug-In . SVG Version: 6.00 Build 0)  -->
<svg version="1.1" id="Camada_1" xmlns="http://www.w3.org/2000/svg" xmlns:xlink="http://www.w3.org/1999/xlink" x="0px" y="0px"
	 viewBox="0 0 219.4 213.5" style="enable-background:new 0 0 219.4 213.5;" xml:space="preserve">
<style type="text/css">
	.st0{fill:#FFFFFF;}
</style>
<path class="st0" d="M183.7,120.6c-3.2-11.3-9.3-20.1-18.5-27c-7.2-5.2-8.9-13.3-4.4-21.3c5.2-9.3,10.9-18.9,16.1-28.2
	c6-10.5-1.2-23-13.3-23.4c-16.1-0.4-32.6-0.4-48.7-0.4c-9.3,0-18.1,0-27.4,0c-6,0-11.7,1.6-17.3,3.6C59.7,27.6,50.8,33.6,44,42.5
	c-6,8.5-9.3,17.7-10.1,27.8c-0.8,7.7-0.4,14.9,1.6,22.6c3.2,11.3,9.3,20.1,18.5,27c7.2,5.2,8.9,13.3,4.4,21.3
	c-5.2,9.3-10.9,18.9-16.1,28.2c-6,10.5,1.2,23,13.3,23.4c16.5,0.4,32.6,0.4,49.1,0.4c9.3,0,18.1,0,27.4,0c6,0,11.7-1.6,17.3-3.6
	c10.5-3.6,19.3-9.7,26.2-18.5c6-8.5,9.3-17.7,10.1-27.8C186.1,135.5,185.7,128.3,183.7,120.6z"/>
</svg>
